<svg id="Layer_1" data-name="Layer 1" xmlns="http://www.w3.org/2000/svg" viewBox="0 0 39 17.76"><path d="M35,0V1.42H36.7L33,5.39l-2-2.13L27.76,6.61a1.8,1.8,0,0,0-.86-.22,2.08,2.08,0,0,0-2,2.13,2.25,2.25,0,0,0,.25,1l-3.51,4.13a2,2,0,0,0-.78-.16h0L18.1,5.88a2.17,2.17,0,0,0,.73-1.62,2,2,0,1,0-4,0,2.63,2.63,0,0,0,.06.49L10.64,8.26a2,2,0,0,0-1.23-.45A2,2,0,0,0,7.52,9.23H3.91A2,2,0,0,0,2,7.81,2.08,2.08,0,0,0,0,9.94a2.09,2.09,0,0,0,2,2.14,2,2,0,0,0,1.89-1.43H7.52a2,2,0,0,0,1.89,1.43,2.08,2.08,0,0,0,2-2.14,2,2,0,0,0-.06-.48l4.21-3.52a2,2,0,0,0,1.23.45h0L19.55,14a2.16,2.16,0,0,0-.72,1.62,2,2,0,1,0,4,0,2.13,2.13,0,0,0-.25-1l3.51-4.13a1.85,1.85,0,0,0,.78.16,2.07,2.07,0,0,0,2-2.13,2.16,2.16,0,0,0-.2-.91l2.22-2.34L33,7.4l4.71-5V4.26H39V0ZM2,10.65A.71.71,0,0,1,2,9.23a.71.71,0,0,1,0,1.42Zm7.39,0a.71.71,0,0,1,0-1.42.71.71,0,0,1,0,1.42Zm6.73-6.39a.67.67,0,1,1,.67.71A.69.69,0,0,1,16.14,4.26Zm4.7,12.08a.71.71,0,1,1,.68-.71A.69.69,0,0,1,20.84,16.34ZM26.9,9.23a.71.71,0,1,1,.67-.71A.69.69,0,0,1,26.9,9.23Z"/></svg>