<svg id="Layer_1" data-name="Layer 1" xmlns="http://www.w3.org/2000/svg" viewBox="0 0 15.3 27"><path d="M6.39,24.18a6.83,6.83,0,0,1-4.65-2A8,8,0,0,1,0,17.25H3a5.27,5.27,0,0,0,1,3,3.7,3.7,0,0,0,2.43,1.23V14.28q-1.14-.3-2.25-.69a8,8,0,0,1-1.95-1.08A5.41,5.41,0,0,1,.81,10.89,5.26,5.26,0,0,1,.3,8.46,5.2,5.2,0,0,1,1.83,4.68,7.16,7.16,0,0,1,6.39,2.82V0H8.91V2.82a6.46,6.46,0,0,1,4.44,1.89A7.2,7.2,0,0,1,15,9.15H12a5.2,5.2,0,0,0-.93-2.49A3.22,3.22,0,0,0,8.91,5.55v6.6q1.17.33,2.31.75a7.1,7.1,0,0,1,2,1.08,4.69,4.69,0,0,1,1.47,1.71,5.24,5.24,0,0,1,.57,2.58,5.51,5.51,0,0,1-1.59,4,7.27,7.27,0,0,1-4.8,1.89V27H6.39Zm6-5.94a2.53,2.53,0,0,0-.27-1.2,2.6,2.6,0,0,0-.75-.87,4.1,4.1,0,0,0-1.08-.66q-.63-.27-1.35-.51v6.48a4.13,4.13,0,0,0,2.61-1.14A3,3,0,0,0,12.36,18.24ZM3.24,8.46a2.2,2.2,0,0,0,.9,1.89,7.6,7.6,0,0,0,2.25,1.08V5.55A4,4,0,0,0,4,6.6,2.66,2.66,0,0,0,3.24,8.46Z"/></svg>