<svg id="Layer_1" data-name="Layer 1" xmlns="http://www.w3.org/2000/svg" xmlns:xlink="http://www.w3.org/1999/xlink" viewBox="0 0 150.65 29.03"><defs><style>.cls-1{fill:none;}.cls-2{clip-path:url(#clip-path);}.cls-3{fill:#0f001e;}.cls-3,.cls-6,.cls-7{fill-rule:evenodd;}.cls-4{fill:url(#linear-gradient);}.cls-5{fill:url(#linear-gradient-2);}.cls-6{fill:#fff;}</style><clipPath id="clip-path"><rect class="cls-1" x="-1.06" y="-3.13" width="154" height="34"/></clipPath><linearGradient id="linear-gradient" x1="10.56" y1="-2.57" x2="25.97" y2="24.34" gradientTransform="matrix(1, 0, 0, -1, 0, 29.75)" gradientUnits="userSpaceOnUse"><stop offset="0" stop-color="#3ac4e8"/><stop offset="1" stop-color="#512a84"/></linearGradient><linearGradient id="linear-gradient-2" x1="16.78" y1="21.89" x2="29.16" y2="3.03" gradientTransform="matrix(1, 0, 0, -1, 0, 29.75)" gradientUnits="userSpaceOnUse"><stop offset="0" stop-color="#f86203" stop-opacity="0"/><stop offset="0.47" stop-color="#f53c04"/><stop offset="1" stop-color="#ffb902"/></linearGradient></defs><g class="cls-2"><path class="cls-3" d="M56.86,20.71V23.3a5.18,5.18,0,0,1-2.18,1.84,7.33,7.33,0,0,1-2.89.55A3.35,3.35,0,0,1,49.41,25a2.47,2.47,0,0,1-.67-1.87,2.1,2.1,0,0,1,.75-1.89,3.54,3.54,0,0,1,2-.56Zm5.8,4.71a3.09,3.09,0,0,1-1.25-.21c-.5-.23-.75-.84-.75-1.82V15a5.18,5.18,0,0,0-2.22-4.59,9.37,9.37,0,0,0-5.36-1.46,8.66,8.66,0,0,0-5.2,1.43,6.1,6.1,0,0,0-2,2.54,1.83,1.83,0,0,0,0,1.52,1.79,1.79,0,0,0,3.25,0A3,3,0,0,1,50.23,13a5.89,5.89,0,0,1,2.91-.56,4.31,4.31,0,0,1,2.83.79,2.69,2.69,0,0,1,.89,2.14v2.36H50.67a5.92,5.92,0,0,0-4,1.5,5.23,5.23,0,0,0-1.73,4.14,4.94,4.94,0,0,0,2,4.37A7.74,7.74,0,0,0,51.39,29,8.15,8.15,0,0,0,55.47,28a7.54,7.54,0,0,0,2.66-2.41h.13a3.12,3.12,0,0,0,2.07,2.95,8,8,0,0,0,2.34.38,1.61,1.61,0,0,0,1.23-.5,1.72,1.72,0,0,0,.53-1.24A1.76,1.76,0,0,0,62.66,25.42Z"/><path class="cls-3" d="M84.35,25.22H79.82V11a1.76,1.76,0,0,0-1.75-1.75H71.49a1.75,1.75,0,1,0,0,3.49H76V25.22H71.49a1.75,1.75,0,1,0,0,3.49H84.35a1.75,1.75,0,0,0,0-3.49Z"/><path class="cls-3" d="M105.93,25.22H101.4V4.7A1.74,1.74,0,0,0,99.66,3H93.07a1.75,1.75,0,0,0,0,3.49H97.6V25.22H93.07a1.75,1.75,0,0,0,0,3.49h12.86a1.75,1.75,0,1,0,0-3.49Z"/><path class="cls-3" d="M116.66,16.91v-.42a4.27,4.27,0,0,1,1.08-3.23,4.69,4.69,0,0,1,3.3-1,4.54,4.54,0,0,1,3.29,1.07,4.7,4.7,0,0,1,1.08,3.46v.14Zm4.41-8a9,9,0,0,0-5.91,1.88,7,7,0,0,0-2.3,5.7v5.05a7.06,7.06,0,0,0,2.19,5.6,8.88,8.88,0,0,0,6,1.89,10.76,10.76,0,0,0,5.47-1.11,5.68,5.68,0,0,0,1.71-1.61,1.83,1.83,0,0,0,.24-1.71,1.9,1.9,0,0,0-1.27-1.2,1.86,1.86,0,0,0-2.08.74,3.06,3.06,0,0,1-1,1,6.42,6.42,0,0,1-3.12.57,4.88,4.88,0,0,1-3.31-1,4.06,4.06,0,0,1-1.07-3.16V19.93h12.22a.33.33,0,0,0,.33-.33V16.71c0-2.62-.76-4.6-2.25-5.88A8.77,8.77,0,0,0,121.07,8.91Z"/><path class="cls-3" d="M150.59,26.43a1.75,1.75,0,0,0-2-1.33l-.64.11a13.64,13.64,0,0,1-2.17.17,3.45,3.45,0,0,1-2.47-.78,3.3,3.3,0,0,1-.81-2.46V12.71h6.41a1.74,1.74,0,1,0,0-3.48h-6.41V4.7A1.74,1.74,0,0,0,140.73,3h-.32a1.74,1.74,0,0,0-1.74,1.75V9.23h-3.59a1.74,1.74,0,0,0,0,3.48h3.59v9.71a6.31,6.31,0,0,0,1.84,4.95A7.32,7.32,0,0,0,145.56,29a17.11,17.11,0,0,0,2.8-.22c.31-.05.61-.1.91-.17a1.73,1.73,0,0,0,1.1-.76,1.7,1.7,0,0,0,.24-1.32Z"/><path class="cls-3" d="M77.92,6.48a2.3,2.3,0,1,0-2.31-2.3A2.3,2.3,0,0,0,77.92,6.48Z"/><path class="cls-4" d="M2.79,27.87a5.7,5.7,0,0,0,7.86-2L15.94,17l5.28,8.89A5.74,5.74,0,1,0,31.06,20L20.86,2.81a5.71,5.71,0,0,0-9.84,0L.81,20A5.79,5.79,0,0,0,2.79,27.87Z"/><path class="cls-5" d="M15.94,17l5.28,8.89A5.74,5.74,0,1,0,31.06,20L20.86,2.81a5.71,5.71,0,0,0-9.84,0C9.21,5.84,13.28,11.16,15.94,17Z"/><path class="cls-6" d="M24.44,18.06a8.5,8.5,0,1,0-8.5,8.5A8.51,8.51,0,0,0,24.44,18.06Z"/><path class="cls-7" d="M20.72,18.06a4.78,4.78,0,1,0-4.78,4.78A4.78,4.78,0,0,0,20.72,18.06Z"/></g></svg>