<svg id="Layer_1" data-name="Layer 1" xmlns="http://www.w3.org/2000/svg" viewBox="0 0 64.97 16.68"><defs><style>.cls-1{fill:#fff;}.cls-1,.cls-2{fill-rule:evenodd;}.cls-2{fill:#f9cc46;}</style></defs><path class="cls-1" d="M34.94,4.08c.15.17,1.56,4.16,1.71,4.65a6.83,6.83,0,0,0,.61,1.51c.49.12.54-.41.68-.82.8-2.24,2-5.5,2.62-7.7C41,.66,41,.37,40.26.37s-.68.54-1,1.23C39,2.91,38,5.68,37.6,7c0,.16,0,.16-.19.16C36.78,5.22,36,2.91,35.32,1c-.19-.36-.53-.44-.76.38-.38,1.3-.92,2.85-1.33,4.11,0,0-.5,1.59-.53,1.67a4.78,4.78,0,0,1-.57-1.47c-.57-1.5-1.07-3.13-1.56-4.64-.12-.28-.12-.45-.38-.62a1.61,1.61,0,0,0-.84-.08c-.75.13-.27.78-.11,1.27.92,2.65,1.94,5.83,3,8.35a.36.36,0,0,0,.11.16.38.38,0,0,0,.17.08.31.31,0,0,0,.19,0,.35.35,0,0,0,.15-.12C33,9.78,34.83,4.08,34.94,4.08Z"/><path class="cls-1" d="M.17.54A.81.81,0,0,0,.2,1C.36,1.72-.1,9.59,0,9.9A1.75,1.75,0,0,0,1.21,10c.18-.21.11-.4.11-.73,0-1.39.11-2.73.11-4.16,0-.53.08-.89.08-1.22s0-.28.07-.36A20.42,20.42,0,0,1,3,6c.23.48.68,1.22,1,1.79.46.9.69.29.8.08C5,7.47,7.09,3.6,7.23,3.52a43.11,43.11,0,0,1,.14,4.31c0,2.12-.23,2.33,1,2.24.39,0,.42-.32.39-.69V7.22c-.1-1.75-.18-3.75-.18-5.5,0-.2.08-1,.08-1.1A.75.75,0,0,0,8.24.36a.69.69,0,0,0-.48.09c-.27.17-.34.54-.54.78C6.45,2.7,5.41,4.37,4.69,5.75c-.27.5-.27.33-.5,0C3.7,5,3.05,3.64,2.6,2.86L1.68,1.23A3.48,3.48,0,0,0,1.2.45C.94.26.43.41.17.54Z"/><path class="cls-1" d="M48.66,5.1a2.53,2.53,0,0,1,1.12-.56A2.38,2.38,0,0,1,51,4.61c1.21.57,1.37,2.49.84,3.43a2,2,0,0,1-.94.8,1.83,1.83,0,0,1-1.2.08,2.59,2.59,0,0,1-1.06-.5Zm0-1.39a28.82,28.82,0,0,1,0-3.22c0-.44-.15-.52-.54-.36-.91.41-.91.24-.79,1.14.08.45,0,5.71,0,6.45,0,1.45-.19,1.79,1.79,2.4a3.9,3.9,0,0,0,1.7,0,4.1,4.1,0,0,0,1.58-.71c1.94-1.7,1.4-6.51-2.13-6.15a7,7,0,0,0-.92.12c-.12,0-.57.32-.63.32Z"/><path class="cls-1" d="M21.86,10A4,4,0,0,0,22,8.41a11.77,11.77,0,0,1,0-1.68c.11,0,.23.21.46.45s2.12,2.37,2.43,2.6a.8.8,0,0,0,.37.23.89.89,0,0,0,.43,0c.26,0,.68,0,.83-.2s-.53-.73-.76-1S25.22,8.29,25,8a17.29,17.29,0,0,1-1.64-1.78c0-.09,2.09-2,2.47-2.33.15-.16.31-.2.27-.45a2.25,2.25,0,0,0-1.45,0c-.18.09-1.44,1.31-1.78,1.64-.11.11-.77.85-.84.81-.11-.37,0-5.47-.07-5.75s-1.37.17-1.34.66a4.68,4.68,0,0,1,.11,1.05V8.85c0,.25-.07,1,.09,1.1A2.37,2.37,0,0,0,21.86,10Z"/><path class="cls-1" d="M12,6.65c.43-.12,1.84.25,1.91.65a9.54,9.54,0,0,1,0,1.31c-.27.37-2.1,1.1-2.71-.2a1.54,1.54,0,0,1,0-1.19,1.13,1.13,0,0,1,.35-.37A1.08,1.08,0,0,1,12,6.65Zm1.94-.49a3,3,0,0,0-1.17-.52,4,4,0,0,0-1.57.11,2.17,2.17,0,0,0-1.08.79,2.39,2.39,0,0,0-.43,1.32A2.34,2.34,0,0,0,10,9.2a2.13,2.13,0,0,0,1.05.83,3.2,3.2,0,0,0,2.24,0c.16-.08.46-.28.57-.32s.16.28.31.36a1.43,1.43,0,0,0,1-.2c.19-.19.22-.16.11-.45a2.13,2.13,0,0,1-.19-1.22V5.26a1.87,1.87,0,0,0-.26-1.18c-.73-1.55-5.1-.94-4.76.37S11.06,4,13,4.25c1,.12.93,1.18.93,1.91Z"/><path class="cls-1" d="M58.89,6H55.73a1.86,1.86,0,0,1,.49-1.06,1.75,1.75,0,0,1,1.07-.48,1.42,1.42,0,0,1,.61.07,1.57,1.57,0,0,1,.53.33,1.43,1.43,0,0,1,.36.51A1.52,1.52,0,0,1,58.89,6ZM55.65,7c.23-.12,3.68,0,4.3,0s.34-2.2-.8-3.1a3,3,0,0,0-1.6-.64,2.91,2.91,0,0,0-1.67.37,3.24,3.24,0,0,0-1.23,1.26,3.43,3.43,0,0,0-.41,1.78,3.49,3.49,0,0,0,.38,1.74,3.31,3.31,0,0,0,1.15,1.28c1,.73,3.76.7,4.1-.45.42-1.47-.57-.65-.92-.49A3.22,3.22,0,0,1,58,9,2,2,0,0,1,55.65,7Z"/><path class="cls-1" d="M41.86,6a1.73,1.73,0,0,1,.5-1.1,1.54,1.54,0,0,1,1.06-.45A1.43,1.43,0,0,1,45,6ZM41.7,7H46c.49,0,.41-.33.37-.73a3.18,3.18,0,0,0-.46-1.54,3,3,0,0,0-1.11-1.09,2.73,2.73,0,0,0-1.47-.37,2.8,2.8,0,0,0-1.44.47A3.29,3.29,0,0,0,40.7,5a3.55,3.55,0,0,0-.36,1.76,3.25,3.25,0,0,0,.37,1.73A3,3,0,0,0,41.9,9.7c1.29.85,3.84.49,4.07-.49,0-.28.18-1-.23-.81A5,5,0,0,1,44.13,9a2.23,2.23,0,0,1-1.71-.5C42.09,8.24,41.56,7.38,41.7,7Z"/><path class="cls-1" d="M62.34,10c.23-.25.2-.36.2-.73v-1c0-1.3-.23-3.46,1.17-3.79.3-.08.38.2.76.12a1.94,1.94,0,0,0,.5-.81c0-.62-.92-.74-1.75-.33-.27.13-.49.57-.68.61,0-.37.07-.52-.16-.85a2,2,0,0,0-.84.29c-.37.19-.45.19-.37.69s0,3.87,0,4.68C61.2,10.16,61.2,10.12,62.34,10Z"/><path class="cls-1" d="M17.53,10V9.91a18.93,18.93,0,0,0,.09-3c0-.78.18-2,1-2.29.64-.24.68.41,1.1,0,1-1.1-.34-1.54-1.14-1.18s-.69.65-.92.73a3.84,3.84,0,0,1,0-.48c0-.21-.08-.21-.15-.33a1.48,1.48,0,0,0-.84.25c-.38.16-.49.19-.38.69a14.32,14.32,0,0,1,.08,2.27V8.81C16.43,10,16.27,10.12,17.53,10Z"/><path class="cls-2" d="M34.67,11.3a19.28,19.28,0,0,0-4.45,1.14c-.45.2-.91.32-1.36.53-.92.36-1.79.69-2.7,1.06-.3.12-2.47.81-2.85.9-1.83.48-4.59,1.05-6.35.2-.83-.45-.91.93,1,1.42a7.26,7.26,0,0,0,3.34-.15c.92-.21,2-.57,2.9-.86s1.9-.61,2.85-.9c.23-.09.41-.16.68-.24l1.4-.46a5.51,5.51,0,0,0,.69-.28l1.45-.37c.27-.08.46-.15.69-.24a25.74,25.74,0,0,1,5.86-.65,14.3,14.3,0,0,1,1.7.2c.92.12.72-.4.12-.74A9.16,9.16,0,0,0,34.67,11.3Z"/></svg>