<svg id="Layer_1" data-name="Layer 1" xmlns="http://www.w3.org/2000/svg" viewBox="0 0 342 321"><defs><style>.cls-1{fill:#723ecd;fill-rule:evenodd;}</style></defs><path class="cls-1" d="M61.45,320.83A59.14,59.14,0,0,1,30,311.72C.81,293.52-8.71,254.07,8.72,223.61L118.21,32.19C129.31,12.78,149.36.9,171,.9s41.68,11.88,52.79,31.29L333.28,223.61c17.42,30.46,7.92,69.91-21.24,88.11s-66.91,8.28-84.33-22.19L171,190.4l-56.71,99.13c-11.51,20.14-31.92,31.3-52.84,31.3M264.77,194A93.78,93.78,0,1,0,171,287.77,93.78,93.78,0,0,0,264.77,194"/><path class="cls-1" d="M220.69,194A49.65,49.65,0,1,0,171,243.6,49.64,49.64,0,0,0,220.69,194"/></svg>