<svg id="Layer_1" data-name="Layer 1" xmlns="http://www.w3.org/2000/svg" xmlns:xlink="http://www.w3.org/1999/xlink" viewBox="0 0 46.91 42"><defs><style>.cls-1{fill:url(#linear-gradient);}.cls-2{fill:url(#linear-gradient-2);}.cls-3{fill:#fff;}.cls-3,.cls-4{fill-rule:evenodd;}</style><linearGradient id="linear-gradient" x1="15.6" y1="-3.35" x2="38.1" y2="36.15" gradientTransform="matrix(1, 0, 0, -1, 0, 44)" gradientUnits="userSpaceOnUse"><stop offset="0" stop-color="#3ac4e8"/><stop offset="1" stop-color="#512a84"/></linearGradient><linearGradient id="linear-gradient-2" x1="24.7" y1="32.74" x2="42.7" y2="4.74" gradientTransform="matrix(1, 0, 0, -1, 0, 44)" gradientUnits="userSpaceOnUse"><stop offset="0" stop-color="#f86203" stop-opacity="0"/><stop offset="0.47" stop-color="#f53c04"/><stop offset="1" stop-color="#ffb902"/></linearGradient></defs><path class="cls-1" d="M4.11,40.8a8.43,8.43,0,0,0,11.57-2.91l7.77-13,7.78,13a8.43,8.43,0,0,0,14.48-8.65l-15-25.13a8.43,8.43,0,0,0-14.48,0L1.2,29.24A8.43,8.43,0,0,0,4.11,40.8Z"/><path class="cls-2" d="M23.45,24.88l7.78,13a8.43,8.43,0,0,0,14.48-8.65l-15-25.13a8.43,8.43,0,0,0-14.48,0C13,8.5,18.5,16,23.45,24.88Z"/><path class="cls-3" d="M36.29,25.31A12.84,12.84,0,1,0,23.45,38.14,12.83,12.83,0,0,0,36.29,25.31Z"/><path class="cls-4" d="M30.21,25.31a6.76,6.76,0,1,0-6.76,6.76A6.76,6.76,0,0,0,30.21,25.31Z"/></svg>