<svg id="Layer_1" data-name="Layer 1" xmlns="http://www.w3.org/2000/svg" viewBox="0 0 1285.96 1186.87"><defs><style>.cls-1{fill:#f7f7f7;}.cls-1,.cls-2{fill-rule:evenodd;}.cls-2{fill:#fff;}</style></defs><path class="cls-1" d="M231,1186.84A224.6,224.6,0,0,1,112.67,1153C3,1085.51-32.75,939.18,32.8,826.17L444.48,116.05C486.23,44.07,561.6,0,643,0S799.71,44.07,841.46,116.05l411.72,710.12c65.51,113,29.76,259.34-79.87,326.87s-251.59,30.71-317.11-82.33L643,703,429.74,1070.71c-43.28,74.72-120,116.13-198.7,116.13"/><path class="cls-2" d="M995.57,716.33c0-192.14-157.86-347.88-352.6-347.88S290.36,524.19,290.36,716.33,448.22,1064.2,643,1064.2s352.6-155.74,352.6-347.87"/><path class="cls-1" d="M829.82,716.16C829.82,614.44,746.25,532,643.15,532S456.48,614.44,456.48,716.16s83.57,184.17,186.67,184.17,186.67-82.45,186.67-184.17"/></svg>