<svg id="Layer_1" data-name="Layer 1" xmlns="http://www.w3.org/2000/svg" xmlns:xlink="http://www.w3.org/1999/xlink" viewBox="0 0 46.47 40.11"><defs><style>.cls-1{fill:none;}.cls-2{fill:url(#linear-gradient);}</style><linearGradient id="linear-gradient" x1="4.84" y1="43.32" x2="42" y2="-0.97" gradientTransform="matrix(1, 0, 0, -1, 0, 41.5)" gradientUnits="userSpaceOnUse"><stop offset="0" stop-color="#00cdff"/><stop offset="0.41" stop-color="#7744d2"/><stop offset="0.7" stop-color="#ff3c01"/><stop offset="1" stop-color="#ffc700"/></linearGradient></defs><polygon class="cls-1" points="23.23 8.24 23.23 8.99 23.23 8.24 23.23 8.24"/><path class="cls-1" d="M18,21.7H28.45a1.22,1.22,0,0,0,1.23-1.2V10.19A1.22,1.22,0,0,0,28.45,9H18a1.22,1.22,0,0,0-1.23,1.2V20.5A1.22,1.22,0,0,0,18,21.7Z"/><polygon class="cls-1" points="26.33 25.81 26.33 23.2 24.59 23.2 20.13 23.2 20.13 25.81 26.33 25.81"/><polygon class="cls-1" points="45.55 20.84 46.28 21 45.55 20.84 45.55 20.84"/><path class="cls-1" d="M9.05,33.61a.34.34,0,1,0,0,.67.34.34,0,1,0,0-.67Z"/><polygon class="cls-1" points="11.21 8.13 11.89 8.46 11.21 8.13 11.21 8.13"/><polygon class="cls-1" points="34.53 8.13 34.61 8.88 34.53 8.13 34.53 8.13"/><path class="cls-1" d="M19.38,37.94a.34.34,0,1,0,.35.34A.35.35,0,0,0,19.38,37.94Z"/><path class="cls-1" d="M41.53,11a10.68,10.68,0,0,0-6.92-2.08l-.7.07-.11-.69A7.25,7.25,0,0,0,29.9,3,13.56,13.56,0,0,0,23.58,1.5c-3.66,0-6.1.81-7.85,2a12.07,12.07,0,0,0-3.84,4.92l-.23.48-.53-.06a8.68,8.68,0,0,0-1-.06,8.5,8.5,0,1,0,0,17h8.51V23.2H18a2.72,2.72,0,0,1-2.73-2.7V19.08H13.79a.75.75,0,0,1,0-1.5h1.49V16.09H12.87a.75.75,0,0,1,0-1.5h2.41V13.1H13.79a.75.75,0,0,1,0-1.5h1.49V10.19A2.71,2.71,0,0,1,18,7.49h1.44V6.33a.75.75,0,0,1,1.5,0V7.49h1.53V5.12a.75.75,0,0,1,1.5,0V7.49h1.53V6.33a.75.75,0,0,1,1.5,0V7.49h1.44a2.71,2.71,0,0,1,2.73,2.7V11.6h1.36a.75.75,0,0,1,0,1.5H31.18v1.49h2.41a.75.75,0,0,1,0,1.5H31.18v1.49h1.36a.75.75,0,0,1,0,1.5H31.18V20.5a2.72,2.72,0,0,1-2.73,2.7h-.62v2.61H38.4a6.57,6.57,0,0,0,6.41-5.11C45.51,15.65,43.78,12.67,41.53,11Z"/><path class="cls-1" d="M37.41,34.28a.34.34,0,1,0-.35-.33A.34.34,0,0,0,37.41,34.28Z"/><path class="cls-1" d="M27.08,37.94h0a.33.33,0,0,0-.32.33.35.35,0,1,0,.35-.34Z"/><path class="cls-2" d="M42.44,9.76a12.32,12.32,0,0,0-7.32-2.4,8.8,8.8,0,0,0-4.5-5.65,15,15,0,0,0-7-1.71c-3.89,0-6.65.86-8.71,2.31a13.18,13.18,0,0,0-4.11,5.05c-.21,0-.43,0-.64,0a10,10,0,1,0,0,20h3.44V33.2H10.73a1.83,1.83,0,1,0,0,1.5h3.58V34h0v.75h.75V27.31h3.57v9.3a1.85,1.85,0,1,0,1.5,0v-9.3h6.2v9.3a1.85,1.85,0,1,0,1.5,0v-9.3h3.56V34.7h4.34a1.84,1.84,0,1,0,0-1.5H32.89V27.31H38.4A8.07,8.07,0,0,0,46.28,21l-.73-.16h0l.73.16v-.06C47.08,15.37,45.15,11.83,42.44,9.76ZM9.05,34.28a.34.34,0,1,1,0-.67.34.34,0,1,1,0,.67ZM16.78,19V10.19A1.22,1.22,0,0,1,18,9h5.22V8.24h0V9h5.22a1.22,1.22,0,0,1,1.23,1.2V20.5a1.22,1.22,0,0,1-1.23,1.2H18a1.22,1.22,0,0,1-1.23-1.2ZM22.57,8.24v0Zm2,15h1.74v2.61h-6.2V23.2ZM19.38,38.61a.34.34,0,1,1,.35-.33A.34.34,0,0,1,19.38,38.61Zm7.7,0a.34.34,0,0,1-.35-.33.33.33,0,0,1,.32-.33h0a.34.34,0,1,1,0,.67Zm10.33-5a.34.34,0,1,1-.35.34A.35.35,0,0,1,37.41,33.61Zm1-7.8H27.83V23.2h.62a2.72,2.72,0,0,0,2.73-2.7V19.08h1.36a.75.75,0,0,0,0-1.5H31.18V16.09h2.41a.75.75,0,0,0,0-1.5H31.18V13.1h1.36a.75.75,0,0,0,0-1.5H31.18V10.19a2.71,2.71,0,0,0-2.73-2.7H27V6.33a.75.75,0,0,0-1.5,0V7.49H24V5.12a.75.75,0,0,0-1.5,0V7.49H21V6.33a.75.75,0,0,0-1.5,0V7.49H18a2.71,2.71,0,0,0-2.73,2.7V11.6H13.79a.75.75,0,0,0,0,1.5h1.49v1.49H12.87a.75.75,0,0,0,0,1.5h2.41v1.49H13.79a.75.75,0,0,0,0,1.5h1.49V20.5A2.72,2.72,0,0,0,18,23.2h.62v2.61H10.12a8.5,8.5,0,1,1,0-17,8.68,8.68,0,0,1,1,.06l.53.06.23-.48-.68-.33h0l.68.33a12.07,12.07,0,0,1,3.84-4.92c1.75-1.23,4.19-2,7.85-2A13.56,13.56,0,0,1,29.9,3a7.25,7.25,0,0,1,3.9,5.23l.11.69.7-.07-.07-.75h0l.07.75A10.68,10.68,0,0,1,41.53,11c2.25,1.71,4,4.69,3.28,9.74A6.57,6.57,0,0,1,38.4,25.81Z"/></svg>