<svg id="Layer_1" data-name="Layer 1" xmlns="http://www.w3.org/2000/svg" xmlns:xlink="http://www.w3.org/1999/xlink" viewBox="0 0 44.71 35.54"><defs><style>.cls-1{fill:none;}.cls-2{fill:url(#linear-gradient);}.cls-3{fill:url(#linear-gradient-2);}.cls-4{fill:url(#linear-gradient-3);}.cls-5{fill:url(#linear-gradient-4);}.cls-6{fill:url(#linear-gradient-5);}</style><linearGradient id="linear-gradient" x1="1.04" y1="34.28" x2="32.7" y2="-6.99" gradientTransform="matrix(1, 0, 0, -1, 0, 36)" gradientUnits="userSpaceOnUse"><stop offset="0" stop-color="#00cdff"/><stop offset="0.41" stop-color="#7744d2"/><stop offset="0.7" stop-color="#ff3c01"/><stop offset="1" stop-color="#ffc700"/></linearGradient><linearGradient id="linear-gradient-2" x1="12.49" y1="43.07" x2="44.16" y2="1.8" xlink:href="#linear-gradient"/><linearGradient id="linear-gradient-3" x1="9.97" y1="41.14" x2="41.64" y2="-0.13" xlink:href="#linear-gradient"/><linearGradient id="linear-gradient-4" x1="-4.06" y1="30.37" x2="27.61" y2="-10.9" xlink:href="#linear-gradient"/><linearGradient id="linear-gradient-5" x1="-6.44" y1="28.54" x2="25.23" y2="-12.73" xlink:href="#linear-gradient"/></defs><polygon class="cls-1" points="28.24 6.22 28.15 5.22 28.24 6.22 28.24 6.22"/><polygon class="cls-1" points="30.82 6.22 30.91 5.22 30.82 6.22 30.82 6.22"/><path class="cls-1" d="M30.76,7.22H28.3a13.18,13.18,0,1,0,2.46,0ZM38,21.35H28.53V12a1,1,0,1,1,2,0v7.38H38a1,1,0,0,1,0,2Z"/><path class="cls-2" d="M13.23,10.32H3.58a1,1,0,0,0,0,2h9.65a1,1,0,0,0,0-2Z"/><path class="cls-3" d="M38,19.35H30.53V12a1,1,0,1,0-2,0v9.38H38a1,1,0,0,0,0-2Z"/><path class="cls-4" d="M30.91,5.22l-.09,1h0l.09-1h-.42V2h1.62a1,1,0,0,0,0-2H27a1,1,0,0,0,0,2h1.54V5.22h-.34l.09,1h0l-.09-1a15.18,15.18,0,1,0,2.76,0ZM29.53,33.54A13.19,13.19,0,0,1,28.3,7.22h2.46a13.19,13.19,0,0,1-1.23,26.32Z"/><path class="cls-5" d="M12.48,19.06a1,1,0,0,0-1-1H1a1,1,0,0,0,0,2H11.48A1,1,0,0,0,12.48,19.06Z"/><path class="cls-6" d="M13.23,25.8H3.58a1,1,0,0,0,0,2h9.65a1,1,0,0,0,0-2Z"/></svg>