<svg id="Layer_1" data-name="Layer 1" xmlns="http://www.w3.org/2000/svg" xmlns:xlink="http://www.w3.org/1999/xlink" viewBox="0 0 35.5 35.04"><defs><style>.cls-1{fill:url(#linear-gradient);}</style><linearGradient id="linear-gradient" x1="1.96" y1="37.16" x2="34.72" y2="3.18" gradientTransform="matrix(1, 0, 0, -1, 0, 37.5)" gradientUnits="userSpaceOnUse"><stop offset="0" stop-color="#00cdff"/><stop offset="0.41" stop-color="#7744d2"/><stop offset="0.7" stop-color="#ff3c01"/><stop offset="1" stop-color="#ffc700"/></linearGradient></defs><path class="cls-1" d="M27.38,35H17.75A3,3,0,0,1,15,33.32a3,3,0,0,1-.17-2.09c-.52.32-1.06.61-1.61.88a1.29,1.29,0,0,1-1.18,0A21.27,21.27,0,0,1,.12,15l0-.19C.06,14.43,0,14,0,13.65v-.23c0-.19,0-.38,0-.57V4.66A1.32,1.32,0,0,1,.94,3.41L12.27.05a1.31,1.31,0,0,1,.76,0L24.36,3.41a1.32,1.32,0,0,1,.94,1.25v7.82a3.25,3.25,0,0,1,2.27,3.08v1.71l.81,2,2.62.86h3.18a1.31,1.31,0,0,1,1.32,1.31V31.5a1.32,1.32,0,0,1-1.32,1.31h-3l-3.07,2A1.35,1.35,0,0,1,27.38,35ZM16,29.58a1.53,1.53,0,0,0,.44.4l.76.45-.58.68a1.47,1.47,0,0,0-.21,1.57,1.52,1.52,0,0,0,1.38.86h9.58l2.87-1.88-.07-10.24-2.88-.94-1.18-2.92v-2a1.78,1.78,0,0,0-1.57-1.74,3.13,3.13,0,0,0-.87.09,1.77,1.77,0,0,0-1.16,1.65,11,11,0,0,0,.15,2.29l1.07,2.65H16.05A1.5,1.5,0,0,0,14.53,22,1.46,1.46,0,0,0,15,23a1.82,1.82,0,0,1,.16,2.22,1.44,1.44,0,0,0,.72,1.39l.77.45-.58.68a1.47,1.47,0,0,0-.35.95.71.71,0,0,0,0,.14,1.47,1.47,0,0,0,.22.67l0,0ZM31.7,31.31H34V21.63H31.63Zm-19-.54ZM1.5,4.81v8c0,.17,0,.33,0,.5v.24c0,.37,0,.73.06,1.09l0,.18a19.81,19.81,0,0,0,11,15.87,19.14,19.14,0,0,0,1.71-1,3.68,3.68,0,0,1-.17-.75,2.83,2.83,0,0,1,0-.3,3.07,3.07,0,0,1,.28-1.28,3,3,0,0,1-.72-1.22l-.37.23a1.31,1.31,0,0,1-1.42,0l-1.43-.9A15.42,15.42,0,0,1,4.3,17.83c-.61-1.29-.87-5.16-.9-5.6V7.46a1.31,1.31,0,0,1,.88-1.24l7.93-2.79a1.29,1.29,0,0,1,.8,0l7.93,2.23a1.31,1.31,0,0,1,1,1.26l0,.89a30.21,30.21,0,0,1-.05,5.09l-.06.49a3.25,3.25,0,0,1,1.33-.87,3.16,3.16,0,0,1,.64-.13V4.81L12.65,1.51ZM4.9,7.6v4.59a21.21,21.21,0,0,0,.79,5.06,13.84,13.84,0,0,0,5.63,7l1.33.85,1.25-.79c.08-.15-.07-.33-.07-.34a2.88,2.88,0,0,1-.8-2,3,3,0,0,1,3-3h2.79a17.37,17.37,0,0,0,1.56-6.3,28.18,28.18,0,0,0,0-4.84l0-.82L12.66,4.86Zm29.28,14h0ZM20.5,19h1l-.25-.6a3.79,3.79,0,0,1-.17-.89A12.18,12.18,0,0,1,20.5,19ZM20.4,6.9ZM12.6,4.85Zm0-3.36Zm20.57,17a.91.91,0,0,1-.23,0,.75.75,0,0,1-.48-.94,8.19,8.19,0,0,0,.26-1.06.75.75,0,0,1,1.48.27A10.24,10.24,0,0,1,33.88,18,.74.74,0,0,1,33.17,18.48Zm-3.52-3h0a.75.75,0,0,1-.75-.76,3.89,3.89,0,0,0-2.51-3.65l-.2-.08a.75.75,0,1,1,.55-1.39l.2.08a5.37,5.37,0,0,1,3.46,5.05A.76.76,0,0,1,29.65,15.48Zm3.79-1.69a.76.76,0,0,1-.74-.61,9.51,9.51,0,0,0-.27-1,.74.74,0,0,1,.47-1,.75.75,0,0,1,1,.47c.13.41.24.82.33,1.24a.75.75,0,0,1-.6.88Zm-2-4.25a.76.76,0,0,1-.57-.26,8.24,8.24,0,0,0-.76-.8.75.75,0,0,1,0-1.06.75.75,0,0,1,1.06,0,11.21,11.21,0,0,1,.89.93.77.77,0,0,1-.09,1.06A.81.81,0,0,1,31.39,9.54ZM27.54,6.78a.92.92,0,0,1-.28,0,7.57,7.57,0,0,0-1.05-.34.75.75,0,0,1,.37-1.46,10.39,10.39,0,0,1,1.23.4.75.75,0,0,1-.27,1.45Z"/></svg>