<svg id="Layer_1" data-name="Layer 1" xmlns="http://www.w3.org/2000/svg" xmlns:xlink="http://www.w3.org/1999/xlink" viewBox="0 0 39.71 40.79"><defs><style>.cls-1{fill:url(#linear-gradient);}.cls-2{fill:url(#linear-gradient-2);}.cls-3{fill:url(#linear-gradient-3);}</style><linearGradient id="linear-gradient" x1="6.84" y1="31.89" x2="32.43" y2="13" gradientTransform="matrix(1, 0, 0, -1, 0, 43.5)" gradientUnits="userSpaceOnUse"><stop offset="0" stop-color="#00cdff"/><stop offset="0.41" stop-color="#7744d2"/><stop offset="0.7" stop-color="#ff3c01"/><stop offset="1" stop-color="#ffc700"/></linearGradient><linearGradient id="linear-gradient-2" x1="-2.55" y1="24.34" x2="11.41" y2="21.72" xlink:href="#linear-gradient"/><linearGradient id="linear-gradient-3" x1="42.26" y1="21.87" x2="28.3" y2="24.5" xlink:href="#linear-gradient"/></defs><path class="cls-1" d="M27.69,34.9H12a2.77,2.77,0,0,1-2.79-2.75v-17H10l-.75,0a1.11,1.11,0,0,1,.1-.46L11.68,10V8.22A2.23,2.23,0,0,1,13.92,6H25.79A2.24,2.24,0,0,1,28,8.22V10l2.32,4.57a1.17,1.17,0,0,1,.12.43h0V32.15A2.77,2.77,0,0,1,27.69,34.9Zm-17-19V32.15A1.27,1.27,0,0,0,12,33.4H27.69A1.27,1.27,0,0,0,29,32.15V15.85ZM12.89,11l-1.74,3.42,17.4,0L26.83,11Zm.29-1.5H26.54V8.22a.74.74,0,0,0-.75-.72H13.92a.73.73,0,0,0-.74.72Zm6.68,22.13a5.58,5.58,0,0,1-3.5-1.2,5,5,0,0,1-1.52-1.82A5.43,5.43,0,0,1,14.21,26a5.24,5.24,0,0,1,3.94-5.37A3.63,3.63,0,0,0,16.88,20l.4-1.45a5.06,5.06,0,0,1,2.09,1.22,4.12,4.12,0,0,1,.78-1.11,4.73,4.73,0,0,1,3.76-1.32,1.44,1.44,0,0,1,1.29,1.28,4.56,4.56,0,0,1-1.26,3.61A5.54,5.54,0,0,1,25.5,26,5.6,5.6,0,0,1,19.86,31.59ZM19.09,22a3.82,3.82,0,0,0-3.38,4,4,4,0,0,0,.46,1.86,3.76,3.76,0,0,0,1,1.28,4.22,4.22,0,0,0,2.64.92A4.11,4.11,0,0,0,24,26a4.06,4.06,0,0,0-1.29-2.94,6.15,6.15,0,0,1-1.58.48l.73,1.15a3.82,3.82,0,0,1-2,.59v0a4.26,4.26,0,0,1-2-.5l.74-1.31a2.54,2.54,0,0,0,.67.25A3.82,3.82,0,0,0,19.09,22Zm3.71.19Zm-2.38-.92a4.33,4.33,0,0,1,.26.84,4.19,4.19,0,0,0,1.72-.55,3.09,3.09,0,0,0,.39-.33,3,3,0,0,0,.91-2.49,3.46,3.46,0,0,0-2.5,1A3.2,3.2,0,0,0,20.42,21.27Z"/><path class="cls-2" d="M6.9,40.79H0V33.66a.76.76,0,0,1,.75-.75.76.76,0,0,1,.75.75v5.63H6.9a.75.75,0,0,1,0,1.5ZM.75,7.54A.76.76,0,0,1,0,6.79V0H8a.76.76,0,0,1,.75.75A.76.76,0,0,1,8,1.5H1.5V6.79A.76.76,0,0,1,.75,7.54Z"/><path class="cls-3" d="M39.71,40.79h-8a.75.75,0,1,1,0-1.5h6.48V34a.75.75,0,0,1,1.5,0ZM39,7.88a.76.76,0,0,1-.75-.75V1.5h-5.4a.75.75,0,0,1,0-1.5h6.9V7.13A.75.75,0,0,1,39,7.88Z"/></svg>